<svg width="217" height="627" viewBox="0 0 217 627" fill="none" xmlns="http://www.w3.org/2000/svg">
<g opacity="0.2">
<path d="M56.725 317.684C-28.5089 317.684 -97.6047 386.78 -97.6047 472.014C-97.6047 557.248 -28.5089 626.344 56.725 626.344C141.959 626.344 211.055 557.248 211.055 472.014C211.055 386.78 141.959 317.684 56.725 317.684Z" fill="#303030"/>
<path d="M61.527 0.0546807C152.47 0.0546847 216.055 67.7176 216.055 153.87C216.055 240.022 152.47 307.685 61.527 307.685C-29.4159 307.685 -93.0007 240.062 -93.0006 153.87C-92.961 67.7176 -29.3763 0.0546768 61.527 0.0546807ZM61.527 248.258C121.549 248.258 161.378 205.577 161.378 153.87C161.378 102.163 121.549 59.4824 61.527 59.4824C1.50552 59.4824 -38.3241 102.163 -38.3241 153.87C-38.3241 205.577 1.50551 248.258 61.527 248.258Z" fill="#303030"/>
</g>
</svg>
