<svg width="825" height="315" viewBox="0 0 825 315" fill="none" xmlns="http://www.w3.org/2000/svg">
<path opacity="0.2" d="M198.63 159.33C198.63 244.564 267.725 313.659 352.959 313.659C438.193 313.659 507.289 244.564 507.289 159.33C507.289 74.0957 438.193 5 352.959 4.99999C267.725 4.99999 198.63 74.0957 198.63 159.33Z" fill="#303030"/>
<path opacity="0.2" d="M-119 154.528C-119 63.5848 -51.3371 0 34.8154 0C120.968 0 188.631 63.5848 188.631 154.528C188.631 245.471 121.007 309.055 34.8154 309.055C-51.3371 309.016 -119 245.431 -119 154.528ZM129.203 154.528C129.203 94.5062 86.5226 54.6766 34.8154 54.6766C-16.8919 54.6766 -59.5723 94.5062 -59.5723 154.528C-59.5723 214.549 -16.8919 254.379 34.8154 254.379C86.5226 254.379 129.203 214.549 129.203 154.528Z" fill="#303030"/>
<path opacity="0.2" d="M517.289 159.528C517.289 68.5848 584.952 5 671.104 5C757.257 5 824.92 68.5848 824.92 159.528C824.92 250.471 757.296 314.055 671.104 314.055C584.952 314.016 517.289 250.431 517.289 159.528ZM765.492 159.528C765.492 99.5062 722.812 59.6766 671.104 59.6766C619.397 59.6766 576.717 99.5062 576.717 159.528C576.717 219.549 619.397 259.379 671.104 259.379C722.812 259.379 765.492 219.549 765.492 159.528Z" fill="#303030"/>
</svg>
