<svg width="157" height="944" viewBox="0 0 157 944" fill="none" xmlns="http://www.w3.org/2000/svg">
<path opacity="0.2" d="M154.725 -0.000227115C69.4911 -0.000234566 0.395285 69.0955 0.395277 154.329C0.39527 239.563 69.4911 308.659 154.725 308.659C239.959 308.659 309.055 239.563 309.055 154.329C309.055 69.0956 239.959 -0.000219664 154.725 -0.000227115Z" fill="#303030"/>
<path opacity="0.2" d="M159.527 636.291C250.47 636.291 314.055 703.954 314.055 790.106C314.055 876.259 250.47 943.922 159.527 943.922C68.5841 943.922 4.99935 876.298 4.99935 790.106C5.03897 703.954 68.6237 636.291 159.527 636.291ZM159.527 884.494C219.549 884.494 259.378 841.814 259.378 790.106C259.378 738.399 219.549 695.719 159.527 695.719C99.5055 695.719 59.6759 738.399 59.6759 790.106C59.6759 841.814 99.5055 884.494 159.527 884.494Z" fill="#303030"/>
<path opacity="0.2" d="M154.527 318.66C245.47 318.66 309.055 386.323 309.055 472.476C309.055 558.628 245.47 626.291 154.527 626.291C63.5841 626.291 -0.00065136 558.668 -0.000647593 472.475C0.0389375 386.323 63.6237 318.66 154.527 318.66ZM154.527 566.863C214.549 566.863 254.378 524.183 254.378 472.476C254.378 420.768 214.549 378.088 154.527 378.088C94.5055 378.088 54.6759 420.768 54.6759 472.475C54.6759 524.183 94.5055 566.863 154.527 566.863Z" fill="#303030"/>
</svg>
